<?xml version="1.0" standalone="no"?>
<!DOCTYPE svg PUBLIC "-//W3C//DTD SVG 20010904//EN"
 "http://www.w3.org/TR/2001/REC-SVG-20010904/DTD/svg10.dtd">
<svg version="1.0" xmlns="http://www.w3.org/2000/svg"
 width="700.000000pt" height="700.000000pt" viewBox="0 0 700.000000 700.000000"
 preserveAspectRatio="xMidYMid meet">
<metadata>
Created by potrace 1.14, written by Peter Selinger 2001-2017
</metadata>
<g transform="translate(0.000000,700.000000) scale(0.100000,-0.100000)"
fill="#000000" stroke="none">
<path d="M3089 6384 c-222 -334 -403 -609 -401 -613 1 -3 86 -7 190 -7 103 -1
193 -2 201 -3 21 -2 9 -280 -15 -341 -50 -124 -138 -210 -258 -250 -59 -19
-87 -20 -696 -24 -349 -3 -646 -7 -660 -10 -14 -2 -41 -7 -60 -10 -269 -42
-514 -147 -740 -317 -301 -226 -538 -595 -609 -949 -6 -30 -14 -66 -16 -80
-15 -71 -20 -149 -20 -280 1 -172 5 -215 41 -387 14 -69 71 -227 117 -323 104
-220 289 -452 464 -582 32 -24 60 -45 63 -48 3 -3 25 -18 50 -35 165 -107 363
-191 545 -231 177 -38 236 -41 856 -41 637 -1 648 -2 744 -58 51 -30 119 -99
149 -152 54 -95 56 -111 56 -848 0 -484 4 -688 12 -711 6 -18 28 -42 52 -58
l40 -26 303 0 c328 0 332 1 383 55 l25 27 2 736 c2 808 1 825 -57 1003 -114
349 -370 625 -704 761 -69 29 -181 62 -241 73 -16 2 -41 8 -55 11 -14 3 -311
8 -660 9 -547 3 -646 5 -714 20 -43 9 -86 20 -95 24 -9 5 -45 21 -81 37 -150
66 -291 198 -375 349 -121 220 -133 497 -29 730 111 253 369 447 639 481 33 4
332 8 665 9 333 2 624 6 648 9 364 56 693 271 879 575 125 205 179 405 182
677 1 92 4 170 6 174 2 3 94 5 204 5 111 0 201 1 201 2 0 9 -814 1223 -820
1223 -4 0 -189 -273 -411 -606z"/>
<path d="M1640 3909 c-74 -4 -108 -11 -154 -32 -329 -151 -334 -596 -9 -750
l68 -32 2550 -3 c2530 -2 2551 -2 2616 18 183 55 305 239 285 430 -17 173
-144 319 -312 359 -37 9 -664 12 -2499 14 -1347 1 -2493 -1 -2545 -4z"/>
<path d="M4399 2657 c-24 -12 -44 -32 -56 -56 -18 -37 -19 -85 -19 -1272 l1
-1234 24 -34 c42 -58 58 -61 386 -61 328 0 344 3 386 61 l24 34 0 1240 0 1240
-22 36 c-39 62 -45 63 -382 64 -278 1 -307 0 -342 -18z"/>
</g>
</svg>
